<?xml version="1.0" encoding="UTF-8"?>
<!-- Generator: Adobe Illustrator 23.0.6, SVG Export Plug-In . SVG Version: 6.00 Build 0)  -->
<svg version="1.1" id="Ebene_1" xmlns="http://www.w3.org/2000/svg" xmlns:xlink="http://www.w3.org/1999/xlink" x="0px" y="0px" viewBox="0 0 16 16" style="enable-background:new 0 0 16 16;" xml:space="preserve">
<style type="text/css">
	.st0{fill:#252525;}
</style>
<path class="st0" d="M0,5.3V4.8C0,4.3,0.3,4,0.8,4H12V2.5c0-0.7,0.8-1,1.3-0.5l2.5,2.5c0.3,0.3,0.3,0.8,0,1.1L13.3,8  C12.8,8.5,12,8.2,12,7.5V6H0.8C0.3,6,0,5.7,0,5.3z M15.2,10H4V8.5c0-0.7-0.8-1-1.3-0.5l-2.5,2.5c-0.3,0.3-0.3,0.8,0,1.1L2.7,14  C3.2,14.5,4,14.2,4,13.5V12h11.2c0.4,0,0.7-0.3,0.7-0.8v-0.5C16,10.3,15.7,10,15.2,10z"/>
</svg>