<?xml version="1.0" encoding="UTF-8"?>
<svg id="Ebene_1" xmlns="http://www.w3.org/2000/svg" version="1.1" viewBox="0 0 16 16">
  <!-- Generator: Adobe Illustrator 29.7.1, SVG Export Plug-In . SVG Version: 2.1.1 Build 8)  -->
  <path d="M0,1C0,.4.4,0,1,0h2C3.5,0,4,.4,4,1v2H0V1ZM0,4h4v8H0V4ZM0,13h4v2c0,.6-.4,1-1,1H1c-.6,0-1-.4-1-1v-2ZM5,1C5,.4,5.4,0,6,0h2c.6,0,1,.4,1,1v2h-4V1ZM5,4h4v8h-4V4ZM5,13h4v2c0,.6-.4,1-1,1h-2c-.6,0-1-.4-1-1v-2ZM11.4,12.4l-1.4-5.1v-2.8l3.1-.8,2.1,7.7-3.8,1ZM12.9,2.7l-2.9.8V.3L11.1,0c.5-.1,1.1.2,1.2.7l.5,1.9ZM11.6,13.3l3.8-1,.5,1.9c.1.5-.2,1.1-.7,1.2l-1.9.5c-.5.1-1.1-.2-1.2-.7l-.5-1.9Z"/>
</svg>