<?xml version="1.0" encoding="UTF-8"?>
<svg id="Ebene_1" xmlns="http://www.w3.org/2000/svg" version="1.1" viewBox="0 0 16 16">
  <!-- Generator: Adobe Illustrator 29.7.1, SVG Export Plug-In . SVG Version: 2.1.1 Build 8)  -->
  <path d="M8,1.8c-2.2,0-4,1-5.3,2.2C1.4,5.2.5,6.7,0,7.7c0,.2,0,.5,0,.7.4,1,1.3,2.4,2.6,3.6,1.3,1.2,3.1,2.2,5.3,2.2s4-1,5.3-2.2c1.3-1.2,2.2-2.6,2.6-3.6,0-.2,0-.5,0-.7-.4-1-1.3-2.4-2.6-3.6-1.3-1.2-3.1-2.2-5.3-2.2h0ZM4,8c0-2.2,1.8-4,4-4s4,1.8,4,4-1.8,4-4,4-4-1.8-4-4ZM8,6.2c0,1-.8,1.8-1.8,1.8s-.6,0-.9-.2c0,.3,0,.6,0,.9.4,1.4,1.8,2.3,3.3,1.9s2.3-1.8,1.9-3.3c-.3-1.3-1.5-2.1-2.8-2,.1.3.2.6.2.9h0Z"/>
</svg>