<svg xmlns="http://www.w3.org/2000/svg"
     viewBox="0 0 448 512">
    <!--!Font Awesome Free 6.5.2 by @fontawesome - https://fontawesome.com License - https://fontawesome.com/license/free Copyright 2024 Fonticons, Inc.-->
    <path fill="#7a7a7a"
          d="M64 32C28.7 32 0 60.7 0 96V416c0 35.3 28.7 64 64 64H288V368c0-26.5 21.5-48 48-48H448V96c0-35.3-28.7-64-64-64H64zM448 352H402.7 336c-8.8 0-16 7.2-16 16v66.7V480l32-32 64-64 32-32z"/>
    <line x1="80"
          y1="130"
          x2="360"
          y2="130"
          stroke="rgba(255, 255, 255)"
          stroke-width="20"/>
    <line x1="80"
          y1="200"
          x2="360"
          y2="200"
          stroke="rgba(255, 255, 255)"
          stroke-width="20"/>
    <line x1="80"
          y1="270"
          x2="360"
          y2="270"
          stroke="rgba(255, 255, 255)"
          stroke-width="20"/>
</svg>
