<?xml version="1.0" encoding="UTF-8"?>
<svg id="Ebene_1" xmlns="http://www.w3.org/2000/svg" version="1.1" viewBox="0 0 16 16">
  <!-- Generator: Adobe Illustrator 29.7.1, SVG Export Plug-In . SVG Version: 2.1.1 Build 8)  -->
  <path d="M4,16h10c.6,0,1-.4,1-1s-.4-1-1-1v-2.1c.6-.2,1-.8,1-1.4V1.5c0-.8-.7-1.5-1.5-1.5H4C2.3,0,1,1.3,1,3v10c0,1.7,1.3,3,3,3ZM3,13c0-.6.4-1,1-1h8v2H4c-.6,0-1-.4-1-1ZM8,2.2c1,0,1.8.8,1.8,1.8s-.8,1.8-1.8,1.8-1.8-.8-1.8-1.8.8-1.8,1.8-1.8ZM5.1,7.9c.5-.6,1.2-.9,1.9-.9h2c.8,0,1.5.4,1.9.9.4.5,0,1.1-.7,1.1h-4.5c-.6,0-1.1-.6-.7-1.1h0Z"/>
</svg>