<?xml version="1.0" encoding="UTF-8"?>
<svg id="Ebene_1" xmlns="http://www.w3.org/2000/svg" version="1.1" viewBox="0 0 16 16">
  <!-- Generator: Adobe Illustrator 29.7.1, SVG Export Plug-In . SVG Version: 2.1.1 Build 8)  -->
  <path d="M10.8,2.3l4.1,4.2c.8.8.8,2,0,2.8l-4.4,4.4c-.3.3-.7.3-.9,0s-.3-.7,0-.9l4.4-4.4c.3-.3.3-.7,0-.9l-4.1-4.2c-.3-.3-.3-.7,0-.9s.7-.3.9,0h0ZM.5,7.6v-3.7c0-1,.8-1.8,1.8-1.8h3.7c.5,0,.9.2,1.3.5l4,4c.7.7.7,1.8,0,2.5l-3.7,3.7c-.7.7-1.8.7-2.5,0L1,8.9c-.3-.3-.5-.8-.5-1.3h0ZM4.5,5.2c0-.5-.4-.9-.9-.9s-.9.4-.9.9.4.9.9.9.9-.4.9-.9Z"/>
</svg>