<?xml version="1.0" encoding="UTF-8"?>
<svg id="Ebene_1" xmlns="http://www.w3.org/2000/svg" version="1.1" viewBox="0 0 16 16">
  <!-- Generator: Adobe Illustrator 29.7.1, SVG Export Plug-In . SVG Version: 2.1.1 Build 8)  -->
  <path d="M8,16c4.4,0,8-3.6,8-8S12.4,0,8,0,0,3.6,0,8s3.6,8,8,8ZM8,5.5c-.6,0-1,.4-1,1s-.3.8-.8.8-.8-.3-.8-.8c0-1.4,1.1-2.5,2.5-2.5s2.5,1.1,2.5,2.5-1.1,2.1-1.8,2.3h0c0,.5-.3.9-.8.9s-.8-.3-.8-.8v-.3c0-.6.5-1.1.9-1.3.2,0,.4-.2.6-.3.1-.1.2-.3.2-.6,0-.6-.4-1-1-1h0ZM7,11.5c0-.6.4-1,1-1s1,.4,1,1-.4,1-1,1-1-.4-1-1Z"/>
</svg>